<svg width="197" height="47" viewBox="0 0 197 47" fill="none" xmlns="http://www.w3.org/2000/svg">
<path d="M15.6302 46.5628H0V46.0163C2.26802 45.743 2.48663 45.4424 2.48663 43.557V11.3128C2.48663 9.42733 2.26802 9.12674 0 8.85349V8.30698H9.48198V8.85349C6.14826 9.12674 5.84767 9.4 5.84767 11.3674V45.743H8.88081C13.2529 45.743 14.4006 42.8738 15.3023 29.6756H16.0948L15.6302 46.5628Z" fill="#F4EBD0"/>
<path d="M24.1012 46.5628H18.0349V46.0163C19.1279 45.6884 19.8384 44.3494 20.5762 40.9064L26.6424 8.30698H29.6756L36.3703 43.557C36.7802 45.4698 37.0535 45.7157 38.3651 46.0163V46.5628H30.3041V46.0163C33.0913 45.743 33.3645 45.4424 32.9273 43.3384L31.6977 37.0808H22.1337L21.5052 40.3599C20.7401 44.0488 21.3686 45.7157 24.1012 46.0163V46.5628ZM24.9756 21.8878L22.2977 36.261H31.561L28.9378 21.7238C28.2 17.707 27.7628 14.8651 27.3256 11.8047H26.8064C26.2872 14.8651 25.768 17.7616 24.9756 21.8878Z" fill="#F4EBD0"/>
<path d="M55.1157 46.5628H48.6942V46.0163C50.7163 45.4698 51.1808 44.2674 51.1808 40.1413V11.3128C51.1808 9.42733 50.9622 9.12674 48.6942 8.85349V8.30698H54.7878L60.0616 33.0093C60.7994 36.4797 61.2366 38.7477 61.7012 41.4529H62.2203C62.6849 38.7477 63.1494 36.4523 63.8872 33.0093L69.407 8.30698H75.3639V8.85349C73.1232 9.12674 72.8773 9.42733 72.8773 11.3128V43.557C72.8773 45.4424 73.1232 45.743 75.3639 46.0163V46.5628H67.0023V46.0163C69.2977 45.743 69.5436 45.4424 69.5436 43.557V23.2267C69.5436 19.7291 69.6256 16.4773 69.9262 11.8593L69.407 11.832L61.8651 46.5628H59.6244L52.3012 11.8047L51.8093 11.832C51.9459 16.3953 52.0006 19.6471 52.0006 23.1174V39.5401C52.0006 44.0488 52.6291 45.4151 55.1157 46.0163V46.5628Z" fill="#F4EBD0"/>
<path d="M86.1849 5.82035H85.6384L88.043 0H92.1145L86.1849 5.82035ZM82.8512 46.5628H76.7849V46.0163C77.8779 45.6884 78.5884 44.3494 79.3262 40.9064L85.3924 8.30698H88.4256L95.1203 43.557C95.5302 45.4698 95.8035 45.7157 97.1151 46.0163V46.5628H89.0541V46.0163C91.8413 45.743 92.1145 45.4424 91.6773 43.3384L90.4477 37.0808H80.8837L80.2552 40.3599C79.4901 44.0488 80.1186 45.7157 82.8512 46.0163V46.5628ZM83.7256 21.8878L81.0477 36.261H90.311L87.6878 21.7238C86.95 17.707 86.5128 14.8651 86.0756 11.8047H85.5564C85.0372 14.8651 84.518 17.7616 83.7256 21.8878Z" fill="#F4EBD0"/>
<path d="M105.75 47C101.269 47 98.9186 44.0488 98.9186 37.9552C98.9186 33.8291 99.9023 31.6977 101.733 31.6977C102.963 31.6977 103.728 32.6541 103.728 34.3756C103.728 37.5727 100.941 38.3651 100.941 42.1087C100.941 44.486 102.608 46.4262 105.477 46.4262C108.127 46.4262 109.302 44.2948 109.302 40.2779V11.3674C109.302 9.4 108.974 9.12674 105.668 8.85349V8.30698H115.15V8.85349C112.882 9.12674 112.636 9.42733 112.636 11.3128V40.0866C112.636 44.568 110.231 47 105.75 47Z" fill="#F4EBD0"/>
<path d="M134.032 46.5628H116.79V46.0163C119.03 45.743 119.276 45.4424 119.276 43.557V11.3128C119.276 9.42733 119.03 9.12674 116.79 8.85349V8.30698H133.759L134.223 20.0843H133.431C132.502 11.2855 131.272 9.12674 126.818 9.12674H122.637V25.85H125.315C128.13 25.85 128.785 24.7297 129.25 19.9203H129.851V32.6267H129.25C128.785 27.7901 128.13 26.6698 125.315 26.6698H122.637V45.743H127.037C131.545 45.743 132.748 43.3384 133.649 32.4901H134.442L134.032 46.5628Z" fill="#F4EBD0"/>
<path d="M146.165 47C141.082 47 140.535 44.2128 138.431 46.5628H137.912V29.8122H138.623C139.934 42.2453 141.956 46.3988 146.274 46.3988C149.635 46.3988 151.602 44.4041 151.602 40.3599C151.602 36.4797 149.853 33.8837 146.574 30.1128L143.405 26.4512C139.934 22.6802 138.24 19.7017 138.24 15.7942C138.24 10.6023 140.918 7.86977 145.809 7.86977C150.318 7.86977 150.783 10.493 152.641 8.30698H153.16V23.9645H152.422C151.247 12.1326 149.389 8.47093 145.645 8.47093C142.558 8.47093 140.863 10.1924 140.863 14.0453C140.863 17.5977 142.312 19.8384 145.755 23.6093L148.924 27.2163C152.176 30.8779 154.308 34.2936 154.308 38.5837C154.308 43.9395 151.11 47 146.165 47Z" fill="#F4EBD0"/>
<path d="M172.288 46.5628H161.658V46.0163C164.965 45.743 165.292 45.4698 165.292 43.5023V9.12674H163.762C160.237 9.12674 159.39 11.5041 158.27 24.4564H157.477L157.887 8.30698H176.059L176.441 24.4564H175.649C174.528 11.5041 173.709 9.12674 170.156 9.12674H168.626V43.5023C168.626 45.4698 168.954 45.743 172.288 46.0163V46.5628Z" fill="#F4EBD0"/>
<path d="M195.897 46.5628H178.655V46.0163C180.895 45.743 181.141 45.4424 181.141 43.557V11.3128C181.141 9.42733 180.895 9.12674 178.655 8.85349V8.30698H195.624L196.088 20.0843H195.296C194.367 11.2855 193.137 9.12674 188.683 9.12674H184.502V25.85H187.18C189.995 25.85 190.651 24.7297 191.115 19.9203H191.716V32.6267H191.115C190.651 27.7901 189.995 26.6698 187.18 26.6698H184.502V45.743H188.902C193.41 45.743 194.613 43.3384 195.515 32.4901H196.307L195.897 46.5628Z" fill="#F4EBD0"/>
</svg>
