<svg width="52" height="44" viewBox="0 0 52 44" fill="none" xmlns="http://www.w3.org/2000/svg">
<path d="M25.7934 43.9259C19.292 43.9259 12.7906 43.8912 6.28921 43.952C4.70075 43.965 3.8501 43.6134 4.01068 41.808C4.36657 37.7804 2.91699 34.2389 1.17228 30.6801C-0.976048 26.3053 -0.0168946 22.0781 2.79112 18.2545C5.6382 14.3831 9.34462 12.2261 14.3183 12.8468C15.1169 12.9466 15.8938 13.0073 16.6663 12.7252C18.9926 11.8746 21.2147 12.1523 23.3196 13.4153C23.9142 13.7712 24.4393 14.062 25.047 13.437C25.2292 13.2504 25.6806 13.029 25.8021 13.1115C27.8289 14.5437 29.4 12.2478 31.123 12.4344C35.3025 12.8902 39.7033 11.8225 43.6528 13.7104C50.3452 16.9091 54.4639 25.0944 49.7679 32.6114C48.2316 35.0722 47.7498 37.7804 47.8323 40.6796C47.9191 43.9086 47.8106 43.9216 44.6423 43.9259C38.3579 43.9303 32.0735 43.9259 25.7891 43.9259H25.7934ZM30.3158 37.3073C32.0344 35.402 33.484 33.8006 34.9249 32.1904C35.3546 31.713 35.9275 31.2139 35.3372 30.5151C34.3694 29.3694 35.2374 28.8312 36.0577 28.3408C39.1435 26.5093 39.4603 23.4669 39.304 20.4115C39.1478 17.304 36.5264 15.7503 33.688 16.8743C32.2167 17.4559 30.7845 18.1633 29.3957 18.9315C26.6484 20.4549 26.5486 22.0911 29.157 23.9226C30.1292 24.6083 30.1639 25.1031 29.4912 25.9841C28.1718 27.7158 27.9548 29.7122 28.506 31.7521C28.9747 33.4837 29.6127 35.172 30.3158 37.2987V37.3073ZM16.688 16.3231C15.5466 16.2407 14.9129 16.7268 14.3053 17.2476C11.7447 19.4436 12.1353 25.5067 14.9476 27.7288C15.9675 28.5361 17.7687 29.0439 16.2757 30.9535C16.0066 31.2964 16.4276 31.7694 16.7227 32.0862C18.0464 33.5141 19.3788 34.9377 20.7156 36.3569C21.0932 36.7561 21.5966 37.1468 21.857 36.3569C22.9377 33.0497 24.9167 29.7556 22.5601 26.2445C21.7485 25.038 21.9351 24.4043 23.1634 23.7099C24.6346 22.8766 25.3377 21.184 24.1182 20.1077C21.9655 18.2154 19.2139 17.1261 16.6923 16.3188L16.688 16.3231ZM11.5103 15.6721C7.30913 16.7181 5.03494 19.1832 3.67216 22.4773C2.54374 25.1986 2.4743 28.1975 4.37525 30.5238C6.58 33.219 9.75692 34.8769 12.6734 37.2726C12.7906 36.4523 12.8253 36.1008 12.8948 35.7579C13.6066 32.3553 11.2759 29.6905 10.5902 26.6134C9.76994 22.9461 8.78041 19.487 11.506 15.6721H11.5103ZM40.8621 15.9716C44.1042 20.8281 41.6043 25.5458 40.2545 29.9423C39.5037 32.3814 38.5662 34.4776 39.2737 37.1294C41.5218 35.3977 43.7005 33.7572 45.8445 32.0689C48.6395 29.8641 49.616 26.9129 48.531 23.4322C47.3549 19.6563 44.9375 17.0349 40.8665 15.9673L40.8621 15.9716Z" fill="#F4EBD0"/>
<path d="M25.5328 11.6966C24.3342 11.6966 23.129 11.745 21.9337 11.6805C21.1226 11.6354 20.3641 11.0903 20.9026 10.3388C21.6218 9.33245 21.0307 8.78414 20.5743 8.09069C19.3757 6.27159 19.3625 6.2103 21.3262 5.2685C22.1767 4.85888 22.4887 4.40733 22.4165 3.42037C22.2753 1.48838 23.6741 0.0530963 25.5098 0.0014906C27.4341 -0.0533405 29.0628 1.41097 28.8855 3.33006C28.7771 4.49441 29.1548 5.00402 30.1662 5.33946C31.6406 5.82649 31.8343 6.66186 30.882 7.87459C30.3041 8.60997 29.7327 9.30342 30.4552 10.4323C30.9379 11.1903 30.1005 11.6708 29.2993 11.6966C28.0449 11.7386 26.7905 11.7063 25.5361 11.7063C25.5361 11.7031 25.5361 11.6966 25.5361 11.6934L25.5328 11.6966Z" fill="#F4EBD0"/>
</svg>
