<svg width="251" height="141" viewBox="0 0 251 141" fill="none" xmlns="http://www.w3.org/2000/svg">
<path d="M26.4788 64.8082H0V63.8824C3.8422 63.4195 4.21253 62.9103 4.21253 59.7162V5.09208C4.21253 1.89796 3.8422 1.38875 0 0.925832V1.90084e-10H16.0632V0.925832C10.4156 1.38875 9.9064 1.85166 9.9064 5.18466V63.4195H15.0448C22.4514 63.4195 24.3957 58.5589 25.9233 36.2H27.2657L26.4788 64.8082Z" fill="#1C1C1C"/>
<path d="M40.8292 64.8082H30.5525V63.8824C32.4041 63.3269 33.6077 61.0586 34.8576 55.2259L45.1343 1.90084e-10H50.2727L61.6141 59.7162C62.3085 62.9566 62.7714 63.3732 64.9934 63.8824V64.8082H51.3374V63.8824C56.0591 63.4195 56.522 62.9103 55.7814 59.3458L53.6983 48.745H37.4962L36.4315 54.3C35.1353 60.5494 36.2 63.3732 40.8292 63.8824V64.8082ZM42.3105 23.0069L37.7739 47.3563H53.4668L49.0228 22.7292C47.7729 15.9243 47.0323 11.11 46.2916 5.92532H45.4121C44.5325 11.11 43.653 16.0169 42.3105 23.0069Z" fill="#1C1C1C"/>
<path d="M10.8785 140.259H0V139.334C3.42558 138.408 4.21253 136.371 4.21253 129.381V80.5432C4.21253 77.3491 3.8422 76.8399 0 76.3769V75.4511H10.323L19.2573 117.299C20.5072 123.178 21.2478 127.02 22.0348 131.603H22.9143C23.7013 127.02 24.4883 123.131 25.7381 117.299L35.089 75.4511H45.1806V76.3769C41.3847 76.8399 40.9681 77.3491 40.9681 80.5432V135.167C40.9681 138.361 41.3847 138.871 45.1806 139.334V140.259H31.0154V139.334C34.9039 138.871 35.3205 138.361 35.3205 135.167V100.726C35.3205 94.801 35.4594 89.2923 35.9686 81.469L35.089 81.4227L22.3125 140.259H18.5166L6.11049 81.3764L5.27724 81.4227C5.5087 89.1534 5.60128 94.6621 5.60128 100.541V128.362C5.60128 136.001 6.66599 138.315 10.8785 139.334V140.259Z" fill="#1C1C1C"/>
<path d="M63.5121 71.2386H62.5862L66.6599 61.3785H73.5573L63.5121 71.2386ZM57.8645 140.259H47.5878V139.334C49.4394 138.778 50.643 136.51 51.8929 130.677L62.1696 75.4511H67.308L78.6494 135.167C79.3438 138.408 79.8067 138.824 82.0287 139.334V140.259H68.3727V139.334C73.0944 138.871 73.5573 138.361 72.8167 134.797L70.7336 124.196H54.5315L53.4668 129.751C52.1706 136.001 53.2353 138.824 57.8645 139.334V140.259ZM59.3458 98.458L54.8092 122.807H70.5021L66.0581 98.1803C64.8082 91.3754 64.0676 86.5611 63.3269 81.3764H62.4474C61.5678 86.5611 60.6883 91.468 59.3458 98.458Z" fill="#1C1C1C"/>
<path d="M96.6568 141C89.065 141 85.0839 136.001 85.0839 125.677C85.0839 118.687 86.7504 115.077 89.852 115.077C91.9351 115.077 93.2313 116.697 93.2313 119.613C93.2313 125.029 88.5095 126.372 88.5095 132.714C88.5095 136.741 91.3333 140.028 96.1939 140.028C100.684 140.028 102.675 136.417 102.675 129.612V80.6358C102.675 77.3028 102.119 76.8399 96.518 76.3769V75.4511H112.581V76.3769C108.739 76.8399 108.322 77.3491 108.322 80.5432V129.288C108.322 136.88 104.249 141 96.6568 141Z" fill="#1C1C1C"/>
<path d="M144.569 140.259H115.359V139.334C119.155 138.871 119.571 138.361 119.571 135.167V80.5432C119.571 77.3491 119.155 76.8399 115.359 76.3769V75.4511H144.106L144.893 95.4028H143.55C141.976 80.4969 139.893 76.8399 132.348 76.8399H125.265V105.17H129.802C134.57 105.17 135.681 103.272 136.468 95.125H137.486V116.651H136.468C135.681 108.457 134.57 106.559 129.802 106.559H125.265V138.871H132.718C140.356 138.871 142.393 134.797 143.921 116.419H145.263L144.569 140.259Z" fill="#1C1C1C"/>
<path d="M165.122 141C156.512 141 155.586 136.278 152.022 140.259H151.142V111.883H152.346C154.568 132.945 157.993 139.982 165.307 139.982C171.001 139.982 174.334 136.602 174.334 129.751C174.334 123.178 171.371 118.78 165.816 112.392L160.447 106.189C154.568 99.8005 151.698 94.7547 151.698 88.135C151.698 79.3396 156.234 74.7104 164.52 74.7104C172.158 74.7104 172.945 79.1544 176.093 75.4511H176.973V101.976H175.723C173.732 81.9319 170.585 75.7289 164.243 75.7289C159.012 75.7289 156.142 78.6452 156.142 85.1723C156.142 91.1902 158.595 94.9862 164.428 101.374L169.798 107.485C175.306 113.688 178.917 119.474 178.917 126.742C178.917 135.815 173.501 141 165.122 141Z" fill="#1C1C1C"/>
<path d="M209.377 140.259H191.369V139.334C196.971 138.871 197.526 138.408 197.526 135.075V76.8399H194.934C188.962 76.8399 187.527 80.8672 185.629 102.809H184.287L184.981 75.4511H215.765L216.413 102.809H215.071C213.173 80.8672 211.784 76.8399 205.766 76.8399H203.174V135.075C203.174 138.408 203.729 138.871 209.377 139.334V140.259Z" fill="#1C1C1C"/>
<path d="M249.373 140.259H220.163V139.334C223.959 138.871 224.375 138.361 224.375 135.167V80.5432C224.375 77.3491 223.959 76.8399 220.163 76.3769V75.4511H248.91L249.697 95.4028H248.354C246.78 80.4969 244.697 76.8399 237.152 76.8399H230.069V105.17H234.606C239.374 105.17 240.485 103.272 241.272 95.125H242.29V116.651H241.272C240.485 108.457 239.374 106.559 234.606 106.559H230.069V138.871H237.522C245.16 138.871 247.197 134.797 248.725 116.419H250.067L249.373 140.259Z" fill="#1C1C1C"/>
<path d="M178.211 59.9639C169.336 59.9639 160.461 59.9165 151.586 59.9994C149.417 60.0172 148.256 59.5373 148.475 57.0726C148.961 51.5745 146.982 46.74 144.6 41.8817C141.668 35.9096 142.977 30.139 146.81 24.9193C150.697 19.6345 155.757 16.69 162.546 17.5372C163.636 17.6734 164.697 17.7564 165.752 17.3713C168.927 16.2101 171.961 16.5892 174.834 18.3133C175.646 18.7991 176.363 19.1961 177.192 18.3429C177.441 18.0882 178.057 17.786 178.223 17.8986C180.99 19.8537 183.135 16.7196 185.487 16.9743C191.192 17.5964 197.2 16.139 202.591 18.7162C211.727 23.0827 217.35 34.2566 210.939 44.5182C208.842 47.8775 208.184 51.5745 208.297 55.5322C208.415 59.9402 208.267 59.9579 203.942 59.9639C195.363 59.9698 186.784 59.9639 178.205 59.9639H178.211ZM184.385 50.9287C186.731 48.3278 188.71 46.1416 190.677 43.9435C191.263 43.2918 192.045 42.6105 191.24 41.6566C189.918 40.0925 191.103 39.3578 192.223 38.6883C196.436 36.1881 196.868 32.0349 196.655 27.8639C196.441 23.6218 192.863 21.5008 188.988 23.0353C186.98 23.8292 185.025 24.7949 183.129 25.8436C179.378 27.9232 179.242 30.1568 182.803 32.657C184.13 33.5931 184.177 34.2685 183.259 35.4712C181.458 37.8352 181.162 40.5605 181.914 43.3451C182.554 45.7091 183.425 48.0138 184.385 50.9169V50.9287ZM165.781 22.2829C164.223 22.1703 163.358 22.8339 162.529 23.5448C159.033 26.5427 159.566 34.8195 163.405 37.8529C164.798 38.9549 167.256 39.6481 165.218 42.255C164.851 42.723 165.426 43.3688 165.829 43.8013C167.636 45.7505 169.454 47.6938 171.279 49.6312C171.795 50.1763 172.482 50.7095 172.837 49.6312C174.313 45.1166 177.014 40.6198 173.797 35.8267C172.689 34.1796 172.944 33.3146 174.621 32.3667C176.629 31.2291 177.589 28.9185 175.924 27.4492C172.986 24.866 169.229 23.3789 165.787 22.2769L165.781 22.2829ZM158.713 21.3942C152.978 22.822 149.873 26.1872 148.013 30.6841C146.473 34.3988 146.378 38.4928 148.973 41.6684C151.983 45.3477 156.319 47.6109 160.301 50.8813C160.461 49.7615 160.508 49.2817 160.603 48.8136C161.575 44.1686 158.393 40.5309 157.457 36.3303C156.337 31.3239 154.986 26.602 158.707 21.3942H158.713ZM198.782 21.803C203.207 28.4327 199.795 34.8728 197.952 40.8745C196.927 44.2042 195.648 47.0658 196.613 50.6858C199.682 48.3219 202.656 46.0823 205.583 43.7776C209.399 40.7679 210.732 36.7391 209.251 31.9875C207.645 26.833 204.345 23.2545 198.788 21.797L198.782 21.803Z" fill="#1C1C1C"/>
<path d="M177.856 15.9673C176.22 15.9673 174.574 16.0333 172.943 15.9453C171.835 15.8836 170.8 15.1395 171.535 14.1136C172.517 12.7399 171.71 11.9914 171.087 11.0447C169.451 8.56144 169.433 8.47779 172.113 7.19211C173.274 6.63293 173.7 6.01652 173.602 4.6692C173.409 2.03181 175.319 0.0724826 177.824 0.00203484C180.451 -0.072816 182.675 1.92614 182.433 4.54592C182.285 6.1354 182.8 6.83107 184.181 7.28898C186.194 7.95383 186.458 9.0942 185.158 10.7497C184.369 11.7536 183.589 12.7003 184.575 14.2413C185.234 15.276 184.091 15.932 182.997 15.9673C181.285 16.0245 179.573 15.9805 177.86 15.9805C177.86 15.9761 177.86 15.9673 177.86 15.9629L177.856 15.9673Z" fill="#1C1C1C"/>
</svg>
